<?xml version="1.0" encoding="UTF-8"?>
<svg id="Layer_2" data-name="Layer 2" xmlns="http://www.w3.org/2000/svg" viewBox="0 0 605.57 544.46">
  <defs>
    <style>
      .cls-1 {
        fill: #1a0e28;
      }

      .cls-2 {
        fill: #fff;
      }

      .cls-3 {
        fill: #ec008c;
      }

      .cls-4 {
        fill: #00aeef;
      }
    </style>
  </defs>
  <g id="Layer_1-2" data-name="Layer 1">
    <g>
      <g>
        <path class="cls-2" d="M181.56,308.45c-3.88-9.13-8.8-18.89-17.93-23.77-3.46-1.85-7.07-2.94-10.76-3.52,7.31-6.01,12.34-14.79,13.86-24.79,1.67-11.04,2.1-22.15-3.91-32.18-4.93-8.21-13.72-16.25-23.53-17.78-3.74-.58-7.31-.92-10.79-.72-.87.03-1.74.12-2.59.25-3.41.48-6.75,1.57-10.12,3.54-.92.54-1.82,1.15-2.71,1.83-5.36,3.2-9.84,7.36-13.18,13.35-4.05,7.29-5.22,15.11-5.98,23.28-1.02,10.91,3.16,22.03,10.53,30.02-12.15,6.65-20.91,18.74-26.4,31.42-8.25,19.02-10.4,39.15-7.27,59.58,1.03,6.68,9.41,10.37,15.38,8.73.04-.01.08-.03.12-.04.46-.11.91-.24,1.35-.43,4.26-1.77,8.29-3.88,12.04-6.35-7.78,27.96-11.53,57.03-11.12,86.06.2,14.58,20.8,15.97,24.45,4.07.51-.85.94-1.76,1.26-2.73,6.35-18.92,12.05-38.05,17.12-57.34,3.63,20.07,9.1,39.79,16.5,58.86,2.44,6.29,8.39,10.65,15.38,8.73,1.85-.51,3.62-1.57,5.12-2.97,3.04-2.3,4.97-5.99,5.19-10.06,1.49-27.59-.64-55.37-6.22-82.44,2.43,3.29,6.6,5.52,10.46,5.52,7.38,0,11.74-5.76,12.5-12.5,2.2-19.63-1.01-39.51-8.73-57.64Z"/>
        <path class="cls-3" d="M186.37,333.37c-8.86,1.93-17.56,4.39-26.13,7.37-.06.02-.12.03-.18.05.32,5.02,1,9.99,2.06,14.95,2.65,3.99.99,10.61-5.02,10.12-.12,0-.25-.02-.38-.03-.97.13-1.94.06-2.85-.22-7.74-.6-15.49-1.08-23.25-1.39-7.81-.31-17.32-1.85-24.9.43-4.84,1.45-8-2.52-8-6.43-.06-.61-.04-1.25.09-1.92.93-5.05,2.13-10.06,3.35-15.06-1.26.22-2.63.06-4.04-.63-6.91-3.35-14.21-5.47-21.8-6.66-3.46-.54-5.42-4.92-4.54-7.99.06-.2.15-.35.21-.53.01-.02.01-.04.01-.06,1.38-7.17,5.11-13.65,8.66-19.94,3.1-5.5,6.58-10.99,11.09-15.44,2.27-2.23,4.91-4.54,7.89-5.71,3.31-1.3,6.47-.82,9.92-.33,7.41,1.07,14.78,2.62,22.3,2.54,7.5-.09,14.35-2.62,21.58-4.19,7.72-1.68,12.92,1.64,18.18,7.08,9.19,9.5,14.21,21.92,19.01,34,2.42,3.39,1.92,8.85-3.26,9.99Z"/>
        <path class="cls-1" d="M175.05,234.15c-5.69-20.54-25.27-36.9-46.96-36.12-.06,0-.11.01-.17.01-.79-.28-1.71-.39-2.77-.27-21.14,2.38-34.05,22.56-38.26,41.92-4.46,20.5,2.26,41.61,21.7,51.48,16.63,8.45,36.21,6.59,50.47-5.56,14.37-12.25,21.04-33.24,15.99-51.47ZM155.61,270.5c-8.3,10.74-21.54,15.43-34.63,11.69-14.44-4.13-23.14-16.36-22.56-31.32.57-14.63,9.67-38.17,26.73-40.09.18-.02.35-.05.53-.09.71.24,1.51.37,2.41.34,14.05-.5,26.42,8.53,32.36,20.98,5.94,12.45,3.5,27.69-4.84,38.48Z"/>
        <g>
          <path class="cls-1" d="M101.28,320.9c-2.28,13.33-3.48,27.65-7.94,40.47-1.67,4.79-4.57,9.93-9.92,11.14-4.19.95-5.55-.11-6.44-4.13-.74-3.32-.93-6.69-.89-10.09.14-13.49,3.32-27.84,6.94-40.8,3.28-11.76,8.86-23.45,19.4-30.31,6.99-4.55.48-15.81-6.56-11.23-14.03,9.13-21.67,24.02-25.85,39.83-2.33,8.83-4,17.94-5.4,26.96-1.46,9.39-2.23,18.79-.35,28.18,1.8,8.97,7.11,14.75,16.64,14.82,8.29.06,15.5-4.34,20.17-11,4.42-6.3,6.21-14.09,7.69-21.51,1.91-9.59,3.4-19.27,5.05-28.91,1.4-8.18-11.13-11.7-12.54-3.46Z"/>
          <path class="cls-1" d="M161.03,320.9c2.28,13.33,3.48,27.65,7.94,40.47,1.67,4.79,4.57,9.93,9.92,11.14,4.19.95,5.55-.11,6.44-4.13.74-3.32.93-6.69.89-10.09-.14-13.49-3.32-27.84-6.94-40.8-3.28-11.76-8.86-23.45-19.4-30.31-6.99-4.55-.48-15.81,6.56-11.23,14.03,9.13,21.67,24.02,25.85,39.83,2.33,8.83,4,17.94,5.4,26.96,1.46,9.39,2.23,18.79.35,28.18-1.8,8.97-7.11,14.75-16.64,14.82-8.29.06-15.5-4.34-20.17-11-4.42-6.3-6.21-14.09-7.69-21.51-1.91-9.59-3.4-19.27-5.05-28.91-1.4-8.18,11.13-11.7,12.54-3.46Z"/>
        </g>
        <g>
          <path class="cls-1" d="M178.92,419.92c-1.81-19.16-5.57-38.06-9.39-56.9-1.66-8.19-14.19-4.73-12.54,3.46,3.52,17.38,7.1,34.81,8.83,52.48.83,8.42,1.26,16.89,1.1,25.35-.08,4.3,1.2,17.43-3.89,19.65-5.54,2.42-9.55-9.5-11.14-13-3.22-7.08-5.33-14.61-6.79-22.23-3.29-17.16-5.39-34.6-7.02-51.99-.77-8.26-13.78-8.34-13,0,1.54,16.44,3.64,32.83,6.37,49.11,2.5,14.94,6.69,30.37,15.38,43.03,7.66,11.14,24.46,11.1,30.16-2.01,2.98-6.85,2.8-15.21,2.94-22.55.15-8.14-.24-16.28-1.01-24.38Z"/>
          <path class="cls-1" d="M83.39,419.92c1.81-19.16,5.57-38.06,9.39-56.9,1.66-8.19,14.19-4.73,12.54,3.46-3.52,17.38-7.1,34.81-8.83,52.48-.83,8.42-1.26,16.89-1.1,25.35.08,4.3-1.2,17.43,3.89,19.65,5.54,2.42,9.55-9.5,11.14-13,3.22-7.08,5.33-14.61,6.79-22.23,3.29-17.16,5.39-34.6,7.02-51.99.77-8.26,13.78-8.34,13,0-1.54,16.44-3.64,32.83-6.37,49.11-2.5,14.94-6.69,30.37-15.38,43.03-7.66,11.14-24.46,11.1-30.16-2.01-2.98-6.85-2.8-15.21-2.94-22.55-.15-8.14.24-16.28,1.01-24.37Z"/>
        </g>
      </g>
      <g>
        <path class="cls-2" d="M118.41,354.95c-3.88-9.13-8.8-18.89-17.93-23.77-3.46-1.85-7.07-2.94-10.76-3.52,7.31-6.01,12.34-14.79,13.86-24.79,1.67-11.04,2.1-22.15-3.91-32.18-4.93-8.21-13.72-16.25-23.53-17.78-3.74-.58-7.31-.92-10.79-.72-.87.03-1.74.12-2.59.25-3.41.48-6.75,1.57-10.12,3.54-.92.54-1.82,1.15-2.71,1.83-5.36,3.2-9.84,7.36-13.18,13.35-4.05,7.29-5.22,15.11-5.98,23.28-1.02,10.91,3.16,22.03,10.53,30.02-12.15,6.65-20.91,18.74-26.4,31.42-8.25,19.02-10.4,39.15-7.27,59.58,1.03,6.68,9.41,10.37,15.38,8.73.04-.01.08-.03.12-.04.46-.11.91-.24,1.35-.43,4.26-1.77,8.29-3.88,12.04-6.35-7.78,27.96-11.53,57.03-11.12,86.06.2,14.58,20.8,15.97,24.45,4.07.51-.85.94-1.76,1.26-2.73,6.35-18.92,12.05-38.05,17.12-57.34,3.63,20.07,9.1,39.79,16.5,58.86,2.44,6.29,8.39,10.65,15.38,8.73,1.85-.51,3.62-1.57,5.12-2.97,3.04-2.3,4.97-5.99,5.19-10.06,1.49-27.59-.64-55.37-6.22-82.44,2.43,3.29,6.6,5.52,10.46,5.52,7.38,0,11.74-5.76,12.5-12.5,2.2-19.63-1.01-39.51-8.73-57.64Z"/>
        <path class="cls-3" d="M123.23,379.87c-8.86,1.93-17.56,4.39-26.13,7.37-.06.02-.12.03-.18.05.32,5.02,1,9.99,2.06,14.95,2.65,3.99.99,10.61-5.02,10.12-.12,0-.25-.02-.38-.03-.97.13-1.94.06-2.85-.22-7.74-.6-15.49-1.08-23.25-1.39-7.81-.31-17.32-1.85-24.9.43-4.84,1.45-8-2.52-8-6.43-.06-.61-.04-1.25.09-1.92.93-5.05,2.13-10.06,3.35-15.06-1.26.22-2.63.06-4.04-.63-6.91-3.35-14.21-5.47-21.8-6.66-3.46-.54-5.42-4.92-4.54-7.99.06-.2.15-.35.21-.53.01-.02.01-.04.01-.06,1.38-7.17,5.11-13.65,8.66-19.94,3.1-5.5,6.58-10.99,11.09-15.44,2.27-2.23,4.91-4.54,7.89-5.71,3.31-1.3,6.47-.82,9.92-.33,7.41,1.07,14.78,2.62,22.3,2.54,7.5-.09,14.35-2.62,21.58-4.19,7.72-1.68,12.92,1.64,18.18,7.08,9.19,9.5,14.21,21.92,19.01,34,2.42,3.39,1.92,8.85-3.26,9.99Z"/>
        <path class="cls-1" d="M111.91,280.65c-5.69-20.54-25.27-36.9-46.96-36.12-.06,0-.11.01-.17.01-.79-.28-1.71-.39-2.77-.27-21.14,2.38-34.05,22.56-38.26,41.92-4.46,20.5,2.26,41.61,21.7,51.48,16.63,8.45,36.21,6.59,50.47-5.56,14.37-12.25,21.04-33.24,15.99-51.47ZM92.46,317c-8.3,10.74-21.54,15.43-34.63,11.69-14.44-4.13-23.14-16.36-22.56-31.32.57-14.63,9.67-38.17,26.73-40.09.18-.02.35-.05.53-.09.71.24,1.51.37,2.41.34,14.05-.5,26.42,8.53,32.36,20.98,5.94,12.45,3.5,27.69-4.84,38.48Z"/>
        <g>
          <path class="cls-1" d="M38.13,367.41c-2.28,13.33-3.48,27.65-7.94,40.47-1.67,4.79-4.57,9.93-9.92,11.14-4.19.95-5.55-.11-6.44-4.13-.74-3.32-.93-6.69-.89-10.09.14-13.49,3.32-27.84,6.94-40.8,3.28-11.76,8.86-23.45,19.4-30.31,6.99-4.55.48-15.81-6.56-11.23-14.03,9.13-21.67,24.02-25.85,39.83-2.33,8.83-4,17.94-5.4,26.96-1.46,9.39-2.23,18.79-.35,28.18,1.8,8.97,7.11,14.75,16.64,14.82,8.29.06,15.5-4.34,20.17-11,4.42-6.3,6.21-14.09,7.69-21.51,1.91-9.59,3.4-19.27,5.05-28.91,1.4-8.18-11.13-11.7-12.54-3.46Z"/>
          <path class="cls-1" d="M97.88,367.41c2.28,13.33,3.48,27.65,7.94,40.47,1.67,4.79,4.57,9.93,9.92,11.14,4.19.95,5.55-.11,6.44-4.13.74-3.32.93-6.69.89-10.09-.14-13.49-3.32-27.84-6.94-40.8-3.28-11.76-8.86-23.45-19.4-30.31-6.99-4.55-.48-15.81,6.56-11.23,14.03,9.13,21.67,24.02,25.85,39.83,2.33,8.83,4,17.94,5.4,26.96,1.46,9.39,2.23,18.79.35,28.18-1.8,8.97-7.11,14.75-16.64,14.82-8.29.06-15.5-4.34-20.17-11-4.42-6.3-6.21-14.09-7.69-21.51-1.91-9.59-3.4-19.27-5.05-28.91-1.4-8.18,11.13-11.7,12.54-3.46Z"/>
        </g>
        <g>
          <path class="cls-1" d="M115.77,466.42c-1.81-19.16-5.57-38.06-9.39-56.9-1.66-8.19-14.19-4.73-12.54,3.46,3.52,17.38,7.1,34.81,8.83,52.48.83,8.42,1.26,16.89,1.1,25.35-.08,4.3,1.2,17.43-3.89,19.65-5.54,2.42-9.55-9.5-11.14-13-3.22-7.08-5.33-14.61-6.79-22.23-3.29-17.16-5.39-34.6-7.02-51.99-.77-8.26-13.78-8.34-13,0,1.54,16.44,3.64,32.83,6.37,49.11,2.5,14.94,6.69,30.37,15.38,43.03,7.66,11.14,24.46,11.1,30.16-2.01,2.98-6.85,2.8-15.21,2.94-22.55.15-8.14-.24-16.28-1.01-24.38Z"/>
          <path class="cls-1" d="M20.24,466.42c1.81-19.16,5.57-38.06,9.39-56.9,1.66-8.19,14.19-4.73,12.54,3.46-3.52,17.38-7.1,34.81-8.83,52.48-.83,8.42-1.26,16.89-1.1,25.35.08,4.3-1.2,17.43,3.89,19.65,5.54,2.42,9.55-9.5,11.14-13,3.22-7.08,5.33-14.61,6.79-22.23,3.29-17.16,5.39-34.6,7.02-51.99.77-8.26,13.78-8.34,13,0-1.54,16.44-3.64,32.83-6.37,49.11-2.5,14.94-6.69,30.37-15.38,43.03-7.66,11.14-24.46,11.1-30.16-2.01-2.98-6.85-2.8-15.21-2.94-22.55-.15-8.14.24-16.28,1.01-24.37Z"/>
        </g>
      </g>
      <g>
        <path class="cls-2" d="M187.66,375.94c-3.88-9.13-8.8-18.89-17.93-23.77-3.46-1.85-7.07-2.94-10.76-3.52,7.31-6.01,12.34-14.79,13.86-24.79,1.67-11.04,2.1-22.15-3.91-32.18-4.93-8.21-13.72-16.25-23.53-17.78-3.74-.58-7.31-.92-10.79-.72-.87.03-1.74.12-2.59.25-3.41.48-6.75,1.57-10.12,3.54-.92.54-1.82,1.15-2.71,1.83-5.36,3.2-9.84,7.36-13.18,13.35-4.05,7.29-5.22,15.11-5.98,23.28-1.02,10.91,3.16,22.03,10.53,30.02-12.15,6.65-20.91,18.74-26.4,31.42-8.25,19.02-10.4,39.15-7.27,59.58,1.03,6.68,9.41,10.37,15.38,8.73.04-.01.08-.03.12-.04.46-.11.91-.24,1.35-.43,4.26-1.77,8.29-3.88,12.04-6.35-7.78,27.96-11.53,57.03-11.12,86.06.2,14.58,20.8,15.97,24.45,4.07.51-.85.94-1.76,1.26-2.73,6.35-18.92,12.05-38.05,17.12-57.34,3.63,20.07,9.1,39.79,16.5,58.86,2.44,6.29,8.39,10.65,15.38,8.73,1.85-.51,3.62-1.57,5.12-2.97,3.04-2.3,4.97-5.99,5.19-10.06,1.49-27.59-.64-55.37-6.22-82.44,2.43,3.29,6.6,5.52,10.46,5.52,7.38,0,11.74-5.76,12.5-12.5,2.2-19.63-1.01-39.51-8.73-57.64Z"/>
        <path class="cls-3" d="M192.48,400.86c-8.86,1.93-17.56,4.39-26.13,7.37-.06.02-.12.03-.18.05.32,5.02,1,9.99,2.06,14.95,2.65,3.99.99,10.61-5.02,10.12-.12,0-.25-.02-.38-.03-.97.13-1.94.06-2.85-.22-7.74-.6-15.49-1.08-23.25-1.39-7.81-.31-17.32-1.85-24.9.43-4.84,1.45-8-2.52-8-6.43-.06-.61-.04-1.25.09-1.92.93-5.05,2.13-10.06,3.35-15.06-1.26.22-2.63.06-4.04-.63-6.91-3.35-14.21-5.47-21.8-6.66-3.46-.54-5.42-4.92-4.54-7.99.06-.2.15-.35.21-.53.01-.02.01-.04.01-.06,1.38-7.17,5.11-13.65,8.66-19.94,3.1-5.5,6.58-10.99,11.09-15.44,2.27-2.23,4.91-4.54,7.89-5.71,3.31-1.3,6.47-.82,9.92-.33,7.41,1.07,14.78,2.62,22.3,2.54,7.5-.09,14.35-2.62,21.58-4.19,7.72-1.68,12.92,1.64,18.18,7.08,9.19,9.5,14.21,21.92,19.01,34,2.42,3.39,1.92,8.85-3.26,9.99Z"/>
        <path class="cls-1" d="M181.16,301.64c-5.69-20.54-25.27-36.9-46.96-36.12-.06,0-.11.01-.17.01-.79-.28-1.71-.39-2.77-.27-21.14,2.38-34.05,22.56-38.26,41.92-4.46,20.5,2.26,41.61,21.7,51.48,16.63,8.45,36.21,6.59,50.47-5.56,14.37-12.25,21.04-33.24,15.99-51.47ZM161.72,337.99c-8.3,10.74-21.54,15.43-34.63,11.69-14.44-4.13-23.14-16.36-22.56-31.32.57-14.63,9.67-38.17,26.73-40.09.18-.02.35-.05.53-.09.71.24,1.51.37,2.41.34,14.05-.5,26.42,8.53,32.36,20.98,5.94,12.45,3.5,27.69-4.84,38.48Z"/>
        <g>
          <path class="cls-1" d="M107.38,388.4c-2.28,13.33-3.48,27.65-7.94,40.47-1.67,4.79-4.57,9.93-9.92,11.14-4.19.95-5.55-.11-6.44-4.13-.74-3.32-.93-6.69-.89-10.09.14-13.49,3.32-27.84,6.94-40.8,3.28-11.76,8.86-23.45,19.4-30.31,6.99-4.55.48-15.81-6.56-11.23-14.03,9.13-21.67,24.02-25.85,39.83-2.33,8.83-4,17.94-5.4,26.96-1.46,9.39-2.23,18.79-.35,28.18,1.8,8.97,7.11,14.75,16.64,14.82,8.29.06,15.5-4.34,20.17-11,4.42-6.3,6.21-14.09,7.69-21.51,1.91-9.59,3.4-19.27,5.05-28.91,1.4-8.18-11.13-11.7-12.54-3.46Z"/>
          <path class="cls-1" d="M167.14,388.4c2.28,13.33,3.48,27.65,7.94,40.47,1.67,4.79,4.57,9.93,9.92,11.14,4.19.95,5.55-.11,6.44-4.13.74-3.32.93-6.69.89-10.09-.14-13.49-3.32-27.84-6.94-40.8-3.28-11.76-8.86-23.45-19.4-30.31-6.99-4.55-.48-15.81,6.56-11.23,14.03,9.13,21.67,24.02,25.85,39.83,2.33,8.83,4,17.94,5.4,26.96,1.46,9.39,2.23,18.79.35,28.18-1.8,8.97-7.11,14.75-16.64,14.82-8.29.06-15.5-4.34-20.17-11-4.42-6.3-6.21-14.09-7.69-21.51-1.91-9.59-3.4-19.27-5.05-28.91-1.4-8.18,11.13-11.7,12.54-3.46Z"/>
        </g>
        <g>
          <path class="cls-1" d="M185.03,487.41c-1.81-19.16-5.57-38.06-9.39-56.9-1.66-8.19-14.19-4.73-12.54,3.46,3.52,17.38,7.1,34.81,8.83,52.48.83,8.42,1.26,16.89,1.1,25.35-.08,4.3,1.2,17.43-3.89,19.65-5.54,2.42-9.55-9.5-11.14-13-3.22-7.08-5.33-14.61-6.79-22.23-3.29-17.16-5.39-34.6-7.02-51.99-.77-8.26-13.78-8.34-13,0,1.54,16.44,3.64,32.83,6.37,49.11,2.5,14.94,6.69,30.37,15.38,43.03,7.66,11.14,24.46,11.1,30.16-2.01,2.98-6.85,2.8-15.21,2.94-22.55.15-8.14-.24-16.28-1.01-24.38Z"/>
          <path class="cls-1" d="M89.5,487.41c1.81-19.16,5.57-38.06,9.39-56.9,1.66-8.19,14.19-4.73,12.54,3.46-3.52,17.38-7.1,34.81-8.83,52.48-.83,8.42-1.26,16.89-1.1,25.35.08,4.3-1.2,17.43,3.89,19.65,5.54,2.42,9.55-9.5,11.14-13,3.22-7.08,5.33-14.61,6.79-22.23,3.29-17.16,5.39-34.6,7.02-51.99.77-8.26,13.78-8.34,13,0-1.54,16.44-3.64,32.83-6.37,49.11-2.5,14.94-6.69,30.37-15.38,43.03-7.66,11.14-24.46,11.1-30.16-2.01-2.98-6.85-2.8-15.21-2.94-22.55-.15-8.14.24-16.28,1.01-24.37Z"/>
        </g>
      </g>
    </g>
    <g>
      <g>
        <path class="cls-2" d="M424.01,308.45c3.88-9.13,8.8-18.89,17.93-23.77,3.46-1.85,7.07-2.94,10.76-3.52-7.31-6.01-12.34-14.79-13.86-24.79-1.67-11.04-2.1-22.15,3.91-32.18,4.93-8.21,13.72-16.25,23.53-17.78,3.74-.58,7.31-.92,10.79-.72.87.03,1.74.12,2.59.25,3.41.48,6.75,1.57,10.12,3.54.92.54,1.82,1.15,2.71,1.83,5.36,3.2,9.84,7.36,13.18,13.35,4.05,7.29,5.22,15.11,5.98,23.28,1.02,10.91-3.16,22.03-10.53,30.02,12.15,6.65,20.91,18.74,26.4,31.42,8.25,19.02,10.4,39.15,7.27,59.58-1.03,6.68-9.41,10.37-15.38,8.73-.04-.01-.08-.03-.12-.04-.46-.11-.91-.24-1.35-.43-4.26-1.77-8.29-3.88-12.04-6.35,7.78,27.96,11.53,57.03,11.12,86.06-.2,14.58-20.8,15.97-24.45,4.07-.51-.85-.94-1.76-1.26-2.73-6.35-18.92-12.05-38.05-17.12-57.34-3.63,20.07-9.1,39.79-16.5,58.86-2.44,6.29-8.39,10.65-15.38,8.73-1.85-.51-3.62-1.57-5.12-2.97-3.04-2.3-4.97-5.99-5.19-10.06-1.49-27.59.64-55.37,6.22-82.44-2.43,3.29-6.6,5.52-10.46,5.52-7.38,0-11.74-5.76-12.5-12.5-2.2-19.63,1.01-39.51,8.73-57.64Z"/>
        <path class="cls-4" d="M419.2,333.37c8.86,1.93,17.56,4.39,26.13,7.37.06.02.12.03.18.05-.32,5.02-1,9.99-2.06,14.95-2.65,3.99-.99,10.61,5.02,10.12.12,0,.25-.02.38-.03.97.13,1.94.06,2.85-.22,7.74-.6,15.49-1.08,23.25-1.39,7.81-.31,17.32-1.85,24.9.43,4.84,1.45,8-2.52,8-6.43.06-.61.04-1.25-.09-1.92-.93-5.05-2.13-10.06-3.35-15.06,1.26.22,2.63.06,4.04-.63,6.91-3.35,14.21-5.47,21.8-6.66,3.46-.54,5.42-4.92,4.54-7.99-.06-.2-.15-.35-.21-.53-.01-.02-.01-.04-.01-.06-1.38-7.17-5.11-13.65-8.66-19.94-3.1-5.5-6.58-10.99-11.09-15.44-2.27-2.23-4.91-4.54-7.89-5.71-3.31-1.3-6.47-.82-9.92-.33-7.41,1.07-14.78,2.62-22.3,2.54-7.5-.09-14.35-2.62-21.58-4.19-7.72-1.68-12.92,1.64-18.18,7.08-9.19,9.5-14.21,21.92-19.01,34-2.42,3.39-1.92,8.85,3.26,9.99Z"/>
        <path class="cls-1" d="M446.5,285.62c14.27,12.16,33.84,14.01,50.47,5.56,19.44-9.87,26.15-30.98,21.7-51.48-4.21-19.36-17.12-39.54-38.26-41.92-1.06-.12-1.98,0-2.77.27-.06,0-.11-.01-.17-.01-21.69-.78-41.27,15.58-46.96,36.12-5.05,18.23,1.62,39.22,15.99,51.47ZM445.12,232.01c5.94-12.46,18.3-21.49,32.36-20.98.9.03,1.7-.1,2.41-.34.17.03.35.07.53.09,17.06,1.92,26.16,25.46,26.73,40.09.58,14.96-8.12,27.2-22.56,31.32-13.09,3.74-26.33-.95-34.63-11.69-8.34-10.8-10.78-26.03-4.84-38.48Z"/>
        <g>
          <path class="cls-1" d="M504.29,320.9c2.28,13.33,3.48,27.65,7.94,40.47,1.67,4.79,4.57,9.93,9.92,11.14,4.19.95,5.55-.11,6.44-4.13.74-3.32.93-6.69.89-10.09-.14-13.49-3.32-27.84-6.94-40.8-3.28-11.76-8.86-23.45-19.4-30.31-6.99-4.55-.48-15.81,6.56-11.23,14.03,9.13,21.67,24.02,25.85,39.83,2.33,8.83,4,17.94,5.4,26.96,1.46,9.39,2.23,18.79.35,28.18-1.8,8.97-7.11,14.75-16.64,14.82-8.29.06-15.5-4.34-20.17-11-4.42-6.3-6.21-14.09-7.69-21.51-1.91-9.59-3.4-19.27-5.05-28.91-1.4-8.18,11.13-11.7,12.54-3.46Z"/>
          <path class="cls-1" d="M444.54,320.9c-2.28,13.33-3.48,27.65-7.94,40.47-1.67,4.79-4.57,9.93-9.92,11.14-4.19.95-5.55-.11-6.44-4.13-.74-3.32-.93-6.69-.89-10.09.14-13.49,3.32-27.84,6.94-40.8,3.28-11.76,8.86-23.45,19.4-30.31,6.99-4.55.48-15.81-6.56-11.23-14.03,9.13-21.67,24.02-25.85,39.83-2.33,8.83-4,17.94-5.4,26.96-1.46,9.39-2.23,18.79-.35,28.18,1.8,8.97,7.11,14.75,16.64,14.82,8.29.06,15.5-4.34,20.17-11,4.42-6.3,6.21-14.09,7.69-21.51,1.91-9.59,3.4-19.27,5.05-28.91,1.4-8.18-11.13-11.7-12.54-3.46Z"/>
        </g>
        <g>
          <path class="cls-1" d="M426.65,419.92c1.81-19.16,5.57-38.06,9.39-56.9,1.66-8.19,14.19-4.73,12.54,3.46-3.52,17.38-7.1,34.81-8.83,52.48-.83,8.42-1.26,16.89-1.1,25.35.08,4.3-1.2,17.43,3.89,19.65,5.54,2.42,9.55-9.5,11.14-13,3.22-7.08,5.33-14.61,6.79-22.23,3.29-17.16,5.39-34.6,7.02-51.99.77-8.26,13.78-8.34,13,0-1.54,16.44-3.64,32.83-6.37,49.11-2.5,14.94-6.69,30.37-15.38,43.03-7.66,11.14-24.46,11.1-30.16-2.01-2.98-6.85-2.8-15.21-2.94-22.55-.15-8.14.24-16.28,1.01-24.37Z"/>
          <path class="cls-1" d="M522.18,419.92c-1.81-19.16-5.57-38.06-9.39-56.9-1.66-8.19-14.19-4.73-12.54,3.46,3.52,17.38,7.1,34.81,8.83,52.48.83,8.42,1.26,16.89,1.1,25.35-.08,4.3,1.2,17.43-3.89,19.65-5.54,2.42-9.55-9.5-11.14-13-3.22-7.08-5.33-14.61-6.79-22.23-3.29-17.16-5.39-34.6-7.02-51.99-.77-8.26-13.78-8.34-13,0,1.54,16.44,3.64,32.83,6.37,49.11,2.5,14.94,6.69,30.37,15.38,43.03,7.66,11.14,24.46,11.1,30.16-2.01,2.98-6.85,2.8-15.21,2.94-22.55.15-8.14-.24-16.28-1.01-24.38Z"/>
        </g>
      </g>
      <g>
        <path class="cls-2" d="M487.16,354.95c3.88-9.13,8.8-18.89,17.93-23.77,3.46-1.85,7.07-2.94,10.76-3.52-7.31-6.01-12.34-14.79-13.86-24.79-1.67-11.04-2.1-22.15,3.91-32.18,4.93-8.21,13.72-16.25,23.53-17.78,3.74-.58,7.31-.92,10.79-.72.87.03,1.74.12,2.59.25,3.41.48,6.75,1.57,10.12,3.54.92.54,1.82,1.15,2.71,1.83,5.36,3.2,9.84,7.36,13.18,13.35,4.05,7.29,5.22,15.11,5.98,23.28,1.02,10.91-3.16,22.03-10.53,30.02,12.15,6.65,20.91,18.74,26.4,31.42,8.25,19.02,10.4,39.15,7.27,59.58-1.03,6.68-9.41,10.37-15.38,8.73-.04-.01-.08-.03-.12-.04-.46-.11-.91-.24-1.35-.43-4.26-1.77-8.29-3.88-12.04-6.35,7.78,27.96,11.53,57.03,11.12,86.06-.2,14.58-20.8,15.97-24.45,4.07-.51-.85-.94-1.76-1.26-2.73-6.35-18.92-12.05-38.05-17.12-57.34-3.63,20.07-9.1,39.79-16.5,58.86-2.44,6.29-8.39,10.65-15.38,8.73-1.85-.51-3.62-1.57-5.12-2.97-3.04-2.3-4.97-5.99-5.19-10.06-1.49-27.59.64-55.37,6.22-82.44-2.43,3.29-6.6,5.52-10.46,5.52-7.38,0-11.74-5.76-12.5-12.5-2.2-19.63,1.01-39.51,8.73-57.64Z"/>
        <path class="cls-4" d="M482.34,379.87c8.86,1.93,17.56,4.39,26.13,7.37.06.02.12.03.18.05-.32,5.02-1,9.99-2.06,14.95-2.65,3.99-.99,10.61,5.02,10.12.12,0,.25-.02.38-.03.97.13,1.94.06,2.85-.22,7.74-.6,15.49-1.08,23.25-1.39,7.81-.31,17.32-1.85,24.9.43,4.84,1.45,8-2.52,8-6.43.06-.61.04-1.25-.09-1.92-.93-5.05-2.13-10.06-3.35-15.06,1.26.22,2.63.06,4.04-.63,6.91-3.35,14.21-5.47,21.8-6.66,3.46-.54,5.42-4.92,4.54-7.99-.06-.2-.15-.35-.21-.53-.01-.02-.01-.04-.01-.06-1.38-7.17-5.11-13.65-8.66-19.94-3.1-5.5-6.58-10.99-11.09-15.44-2.27-2.23-4.91-4.54-7.89-5.71-3.31-1.3-6.47-.82-9.92-.33-7.41,1.07-14.78,2.62-22.3,2.54-7.5-.09-14.35-2.62-21.58-4.19-7.72-1.68-12.92,1.64-18.18,7.08-9.19,9.5-14.21,21.92-19.01,34-2.42,3.39-1.92,8.85,3.26,9.99Z"/>
        <path class="cls-1" d="M509.65,332.12c14.27,12.16,33.84,14.01,50.47,5.56,19.44-9.87,26.15-30.98,21.7-51.48-4.21-19.36-17.12-39.54-38.26-41.92-1.06-.12-1.98,0-2.77.27-.06,0-.11-.01-.17-.01-21.69-.78-41.27,15.58-46.96,36.12-5.05,18.23,1.62,39.22,15.99,51.47ZM508.27,278.52c5.94-12.46,18.3-21.49,32.36-20.98.9.03,1.7-.1,2.41-.34.17.03.35.07.53.09,17.06,1.92,26.16,25.46,26.73,40.09.58,14.96-8.12,27.2-22.56,31.32-13.09,3.74-26.33-.95-34.63-11.69-8.34-10.8-10.78-26.03-4.84-38.48Z"/>
        <g>
          <path class="cls-1" d="M567.44,367.41c2.28,13.33,3.48,27.65,7.94,40.47,1.67,4.79,4.57,9.93,9.92,11.14,4.19.95,5.55-.11,6.44-4.13.74-3.32.93-6.69.89-10.09-.14-13.49-3.32-27.84-6.94-40.8-3.28-11.76-8.86-23.45-19.4-30.31-6.99-4.55-.48-15.81,6.56-11.23,14.03,9.13,21.67,24.02,25.85,39.83,2.33,8.83,4,17.94,5.4,26.96,1.46,9.39,2.23,18.79.35,28.18-1.8,8.97-7.11,14.75-16.64,14.82-8.29.06-15.5-4.34-20.17-11-4.42-6.3-6.21-14.09-7.69-21.51-1.91-9.59-3.4-19.27-5.05-28.91-1.4-8.18,11.13-11.7,12.54-3.46Z"/>
          <path class="cls-1" d="M507.68,367.41c-2.28,13.33-3.48,27.65-7.94,40.47-1.67,4.79-4.57,9.93-9.92,11.14-4.19.95-5.55-.11-6.44-4.13-.74-3.32-.93-6.69-.89-10.09.14-13.49,3.32-27.84,6.94-40.8,3.28-11.76,8.86-23.45,19.4-30.31,6.99-4.55.48-15.81-6.56-11.23-14.03,9.13-21.67,24.02-25.85,39.83-2.33,8.83-4,17.94-5.4,26.96-1.46,9.39-2.23,18.79-.35,28.18,1.8,8.97,7.11,14.75,16.64,14.82,8.29.06,15.5-4.34,20.17-11,4.42-6.3,6.21-14.09,7.69-21.51,1.91-9.59,3.4-19.27,5.05-28.91,1.4-8.18-11.13-11.7-12.54-3.46Z"/>
        </g>
        <g>
          <path class="cls-1" d="M489.79,466.42c1.81-19.16,5.57-38.06,9.39-56.9,1.66-8.19,14.19-4.73,12.54,3.46-3.52,17.38-7.1,34.81-8.83,52.48-.83,8.42-1.26,16.89-1.1,25.35.08,4.3-1.2,17.43,3.89,19.65,5.54,2.42,9.55-9.5,11.14-13,3.22-7.08,5.33-14.61,6.79-22.23,3.29-17.16,5.39-34.6,7.02-51.99.77-8.26,13.78-8.34,13,0-1.54,16.44-3.64,32.83-6.37,49.11-2.5,14.94-6.69,30.37-15.38,43.03-7.66,11.14-24.46,11.1-30.16-2.01-2.98-6.85-2.8-15.21-2.94-22.55-.15-8.14.24-16.28,1.01-24.37Z"/>
          <path class="cls-1" d="M585.33,466.42c-1.81-19.16-5.57-38.06-9.39-56.9-1.66-8.19-14.19-4.73-12.54,3.46,3.52,17.38,7.1,34.81,8.83,52.48.83,8.42,1.26,16.89,1.1,25.35-.08,4.3,1.2,17.43-3.89,19.65-5.54,2.42-9.55-9.5-11.14-13-3.22-7.08-5.33-14.61-6.79-22.23-3.29-17.16-5.39-34.6-7.02-51.99-.77-8.26-13.78-8.34-13,0,1.54,16.44,3.64,32.83,6.37,49.11,2.5,14.94,6.69,30.37,15.38,43.03,7.66,11.14,24.46,11.1,30.16-2.01,2.98-6.85,2.8-15.21,2.94-22.55.15-8.14-.24-16.28-1.01-24.38Z"/>
        </g>
      </g>
      <g>
        <path class="cls-2" d="M417.9,375.94c3.88-9.13,8.8-18.89,17.93-23.77,3.46-1.85,7.07-2.94,10.76-3.52-7.31-6.01-12.34-14.79-13.86-24.79-1.67-11.04-2.1-22.15,3.91-32.18,4.93-8.21,13.72-16.25,23.53-17.78,3.74-.58,7.31-.92,10.79-.72.87.03,1.74.12,2.59.25,3.41.48,6.75,1.57,10.12,3.54.92.54,1.82,1.15,2.71,1.83,5.36,3.2,9.84,7.36,13.18,13.35,4.05,7.29,5.22,15.11,5.98,23.28,1.02,10.91-3.16,22.03-10.53,30.02,12.15,6.65,20.91,18.74,26.4,31.42,8.25,19.02,10.4,39.15,7.27,59.58-1.03,6.68-9.41,10.37-15.38,8.73-.04-.01-.08-.03-.12-.04-.46-.11-.91-.24-1.35-.43-4.26-1.77-8.29-3.88-12.04-6.35,7.78,27.96,11.53,57.03,11.12,86.06-.2,14.58-20.8,15.97-24.45,4.07-.51-.85-.94-1.76-1.26-2.73-6.35-18.92-12.05-38.05-17.12-57.34-3.63,20.07-9.1,39.79-16.5,58.86-2.44,6.29-8.39,10.65-15.38,8.73-1.85-.51-3.62-1.57-5.12-2.97-3.04-2.3-4.97-5.99-5.19-10.06-1.49-27.59.64-55.37,6.22-82.44-2.43,3.29-6.6,5.52-10.46,5.52-7.38,0-11.74-5.76-12.5-12.5-2.2-19.63,1.01-39.51,8.73-57.64Z"/>
        <path class="cls-4" d="M413.09,400.86c8.86,1.93,17.56,4.39,26.13,7.37.06.02.12.03.18.05-.32,5.02-1,9.99-2.06,14.95-2.65,3.99-.99,10.61,5.02,10.12.12,0,.25-.02.38-.03.97.13,1.94.06,2.85-.22,7.74-.6,15.49-1.08,23.25-1.39,7.81-.31,17.32-1.85,24.9.43,4.84,1.45,8-2.52,8-6.43.06-.61.04-1.25-.09-1.92-.93-5.05-2.13-10.06-3.35-15.06,1.26.22,2.63.06,4.04-.63,6.91-3.35,14.21-5.47,21.8-6.66,3.46-.54,5.42-4.92,4.54-7.99-.06-.2-.15-.35-.21-.53-.01-.02-.01-.04-.01-.06-1.38-7.17-5.11-13.65-8.66-19.94-3.1-5.5-6.58-10.99-11.09-15.44-2.27-2.23-4.91-4.54-7.89-5.71-3.31-1.3-6.47-.82-9.92-.33-7.41,1.07-14.78,2.62-22.3,2.54-7.5-.09-14.35-2.62-21.58-4.19-7.72-1.68-12.92,1.64-18.18,7.08-9.19,9.5-14.21,21.92-19.01,34-2.42,3.39-1.92,8.85,3.26,9.99Z"/>
        <path class="cls-1" d="M440.39,353.11c14.27,12.16,33.84,14.01,50.47,5.56,19.44-9.87,26.15-30.98,21.7-51.48-4.21-19.36-17.12-39.54-38.26-41.92-1.06-.12-1.98,0-2.77.27-.06,0-.11-.01-.17-.01-21.69-.78-41.27,15.58-46.96,36.12-5.05,18.23,1.62,39.22,15.99,51.47ZM439.01,299.51c5.94-12.46,18.3-21.49,32.36-20.98.9.03,1.7-.1,2.41-.34.17.03.35.07.53.09,17.06,1.92,26.16,25.46,26.73,40.09.58,14.96-8.12,27.2-22.56,31.32-13.09,3.74-26.33-.95-34.63-11.69-8.34-10.8-10.78-26.03-4.84-38.48Z"/>
        <g>
          <path class="cls-1" d="M498.18,388.4c2.28,13.33,3.48,27.65,7.94,40.47,1.67,4.79,4.57,9.93,9.92,11.14,4.19.95,5.55-.11,6.44-4.13.74-3.32.93-6.69.89-10.09-.14-13.49-3.32-27.84-6.94-40.8-3.28-11.76-8.86-23.45-19.4-30.31-6.99-4.55-.48-15.81,6.56-11.23,14.03,9.13,21.67,24.02,25.85,39.83,2.33,8.83,4,17.94,5.4,26.96,1.46,9.39,2.23,18.79.35,28.18-1.8,8.97-7.11,14.75-16.64,14.82-8.29.06-15.5-4.34-20.17-11-4.42-6.3-6.21-14.09-7.69-21.51-1.91-9.59-3.4-19.27-5.05-28.91-1.4-8.18,11.13-11.7,12.54-3.46Z"/>
          <path class="cls-1" d="M438.43,388.4c-2.28,13.33-3.48,27.65-7.94,40.47-1.67,4.79-4.57,9.93-9.92,11.14-4.19.95-5.55-.11-6.44-4.13-.74-3.32-.93-6.69-.89-10.09.14-13.49,3.32-27.84,6.94-40.8,3.28-11.76,8.86-23.45,19.4-30.31,6.99-4.55.48-15.81-6.56-11.23-14.03,9.13-21.67,24.02-25.85,39.83-2.33,8.83-4,17.94-5.4,26.96-1.46,9.39-2.23,18.79-.35,28.18,1.8,8.97,7.11,14.75,16.64,14.82,8.29.06,15.5-4.34,20.17-11,4.42-6.3,6.21-14.09,7.69-21.51,1.91-9.59,3.4-19.27,5.05-28.91,1.4-8.18-11.13-11.7-12.54-3.46Z"/>
        </g>
        <g>
          <path class="cls-1" d="M420.54,487.41c1.81-19.16,5.57-38.06,9.39-56.9,1.66-8.19,14.19-4.73,12.54,3.46-3.52,17.38-7.1,34.81-8.83,52.48-.83,8.42-1.26,16.89-1.1,25.35.08,4.3-1.2,17.43,3.89,19.65,5.54,2.42,9.55-9.5,11.14-13,3.22-7.08,5.33-14.61,6.79-22.23,3.29-17.16,5.39-34.6,7.02-51.99.77-8.26,13.78-8.34,13,0-1.54,16.44-3.64,32.83-6.37,49.11-2.5,14.94-6.69,30.37-15.38,43.03-7.66,11.14-24.46,11.1-30.16-2.01-2.98-6.85-2.8-15.21-2.94-22.55-.15-8.14.24-16.28,1.01-24.37Z"/>
          <path class="cls-1" d="M516.07,487.41c-1.81-19.16-5.57-38.06-9.39-56.9-1.66-8.19-14.19-4.73-12.54,3.46,3.52,17.38,7.1,34.81,8.83,52.48.83,8.42,1.26,16.89,1.1,25.35-.08,4.3,1.2,17.43-3.89,19.65-5.54,2.42-9.55-9.5-11.14-13-3.22-7.08-5.33-14.61-6.79-22.23-3.29-17.16-5.39-34.6-7.02-51.99-.77-8.26-13.78-8.34-13,0,1.54,16.44,3.64,32.83,6.37,49.11,2.5,14.94,6.69,30.37,15.38,43.03,7.66,11.14,24.46,11.1,30.16-2.01,2.98-6.85,2.8-15.21,2.94-22.55.15-8.14-.24-16.28-1.01-24.38Z"/>
        </g>
      </g>
    </g>
    <g>
      <path class="cls-2" d="M405.81,156.62c-10.74-4.75-20.17-2.09-30.26,2.93-8.29,4.13-16.67,8-25.29,11.4-7.69,3.04-15.47,5.83-23.29,8.5,5.36-5.57,10.02-13.27,11.58-20.82,2.43-11.75-.8-22.41-8.79-31.24-3.92-4.33-8.9-8.01-14.41-10.17-5.01-3.71-11.51-5.23-18.15-3.46-17.46,4.67-29.61,20.48-30.31,38.46-.37,9.59,3.04,19.18,9.55,26.24.19.2.39.39.58.59-6.99-3.41-14.01-6.74-21.08-9.98-15.62-7.16-31.86-13.93-49.4-13.09-5.59.27-10.44,4.14-11.41,9.59-1.21,4.88,1.09,9.93,5.4,12.83,22.79,15.31,50.39,22.38,76.78,29.81.14,20.48,1.12,40.93,2.92,61.33-1.15,3.07-2.3,6.14-3.46,9.21-2.89,7.69-5.95,15.27-7.33,23.39-1.18,2.12-1.4,4.59-.9,6.97-.62,6.36-.83,12.74-1.3,19.13-.48,6.55-1.66,13.13-5.18,18.82-7.88,12.73,12.18,24.4,20.04,11.71,9.09-14.69,7.74-31.6,9.42-48.06,3.8-6.26,5.7-13.46,8.17-20.32.08-.23.19-.46.29-.68,1.18.37,2.48.65,3.34.97,2.17.8,4.33,1.6,6.5,2.4.14.05.29.08.44.13,1.2,4.31,2.15,8.72,2.87,13.18,2.62,16.17,3.33,32.69,8.96,48.23,2.14,5.89,7.89,9.86,14.27,8.1,5.68-1.56,10.25-8.35,8.1-14.27-6-16.54-6.4-34.19-9.5-51.36-1.58-8.72-4.16-17-7.7-24.85,1.49-12.1,2.41-24.25,2.48-36.47.04-7.26-.17-14.52-.66-21.77-.09-1.29-.14-2.65-.21-4.05,5.19-1.13,10.49-1.69,15.8-2.42,8.01-1.1,15.82-2.86,23.41-5.7,7.91-2.96,15.59-6.61,22.66-11.25,7.31-4.79,14.93-10.27,19.23-18.08,2.76-5.02,1.7-13.28-4.16-15.87Z"/>
      <path class="cls-4" d="M361.33,190.35c-1.14-3.33-2.28-6.67-3.42-10-1.96-5.73-8.06-10.11-14.27-8.1-1.73.56-3.34,1.53-4.7,2.78-1.71.55-3.34,1.46-4.75,2.72-3.67,3.28-8.47,4.89-13.77,6.17-5.88,1.42-11.92,2.31-17.96,2.54-6.22.23-12.46-.15-18.27-2.59-5.59-2.35-10.75-6.17-15.88-9.39-2.29-2.61-5.7-4.35-8.95-4.21-6.81.3-10.95,5.11-11.6,11.6-.03.26-.04.43-.05.57-.2,1.05-.37,2.09-.61,3.13-.44,1.94-.99,3.84-1.63,5.73-1.94,5.76,2.23,12.93,8.1,14.27,1.05.24,2.08.34,3.08.33,7.23,2.81,14.71,5.02,22.32,6.59-.48,10.84-.65,21.68-.43,32.53.05,2.45.09,4.97.44,7.37-.5,1.25-.79,2.65-.79,4.19,0,5.7,5.34,12.34,11.6,11.6,7.73-.92,15.49-1.56,23.27-1.92,1.03.29,2.15.46,3.38.46,6.97,0,10.69-5.06,11.15-10.45,1.8-3.24,2.25-7.34,2.46-11.43.55-11.19-.65-22.35-1.95-33.45,6.92-2.26,13.78-4.19,21.01-5.32,1.15-.18,2.21-.59,3.15-1.18.32-.07.64-.15.96-.26,5.69-1.84,10.2-8.12,8.1-14.27Z"/>
      <path class="cls-1" d="M342.86,141.1c-5.08-18.33-22.56-32.93-41.91-32.23-.05,0-.1,0-.15.01-.7-.25-1.52-.35-2.47-.24-18.86,2.12-30.39,20.14-34.14,37.41-3.98,18.29,2.02,37.13,19.36,45.94,14.84,7.54,32.31,5.89,45.05-4.96,12.83-10.93,18.78-29.66,14.27-45.93ZM325.5,173.54c-7.4,9.58-19.22,13.78-30.91,10.44-12.89-3.68-20.65-14.6-20.13-27.95.51-13.06,8.63-34.07,23.86-35.78.16-.02.32-.05.47-.08.63.22,1.34.33,2.15.3,12.54-.45,23.57,7.61,28.88,18.73,5.3,11.11,3.12,24.71-4.32,34.34Z"/>
      <g>
        <path class="cls-1" d="M296.76,278.11c-3.62,16.1-7.23,32.2-10.85,48.3-1.55,6.89-2.71,14.08-5.3,20.68-1.06,2.7-7.31,14.72-11.41,8.82-1.32-1.9-.81-5.45-.66-7.54.28-3.78.68-7.56,1.1-11.33.87-7.83,1.98-15.64,3.31-23.41,2.78-16.18,6.57-32.16,11.35-47.87,2.15-7.08-8.51-11.67-10.68-4.53-4.48,14.74-8.24,29.7-11.08,44.84-2.72,14.5-5.51,29.72-5.66,44.5-.06,5.62,1.15,11.46,5.75,15.18,4.76,3.84,11.72,3.75,16.92.93,12.15-6.6,14.37-23.14,17.1-35.29,3.88-17.25,7.75-34.5,11.63-51.75,1.64-7.28-9.87-8.77-11.5-1.53Z"/>
        <path class="cls-1" d="M308.81,278.11c3.62,16.1,7.23,32.2,10.85,48.3,1.55,6.89,2.71,14.08,5.3,20.68,1.06,2.7,7.31,14.72,11.41,8.82,1.32-1.9.81-5.45.66-7.54-.28-3.78-.68-7.56-1.1-11.33-.87-7.83-1.98-15.64-3.31-23.41-2.78-16.18-6.57-32.16-11.35-47.87-2.15-7.08,8.51-11.67,10.68-4.53,4.48,14.74,8.24,29.7,11.08,44.84,2.72,14.5,5.51,29.72,5.66,44.5.06,5.62-1.15,11.46-5.75,15.18-4.76,3.84-11.72,3.75-16.92.93-12.15-6.6-14.37-23.14-17.1-35.29-3.88-17.25-7.75-34.5-11.63-51.75-1.64-7.28,9.87-8.77,11.5-1.53Z"/>
      </g>
      <g>
        <path class="cls-1" d="M418.38,166.07c.08,6.05-3.36,11.27-7.56,15.35-10.01,9.73-23.32,16.56-36.19,21.63-15.35,6.04-31.35,9.98-47.38,13.76-7.27,1.71-9.87-9.6-2.58-11.31,15.01-3.54,30.17-7.06,44.56-12.72,6.84-2.69,13.51-5.83,19.81-9.61,5.56-3.33,12.22-7.35,16.07-12.7,4.41-6.14-1.97-10.06-7.92-9.74-7.01.37-14.24,3.46-20.8,5.79-15.02,5.33-29.48,12.2-43.27,20.17-6.46,3.73-11.87-6.54-5.4-10.27,13.06-7.54,26.69-14.01,40.82-19.28,11.81-4.41,27.61-11.94,39.99-5.65,5.53,2.8,9.77,8.24,9.86,14.6Z"/>
        <path class="cls-1" d="M187.19,166.07c-.08,6.05,3.36,11.27,7.56,15.35,10.01,9.73,23.32,16.56,36.19,21.63,15.35,6.04,31.35,9.98,47.38,13.76,7.27,1.71,9.87-9.6,2.58-11.31-15.01-3.54-30.17-7.06-44.56-12.72-6.84-2.69-13.51-5.83-19.81-9.61-5.56-3.33-12.22-7.35-16.07-12.7-4.41-6.14,1.97-10.06,7.92-9.74,7.01.37,14.24,3.46,20.8,5.79,15.02,5.33,29.48,12.2,43.27,20.17,6.46,3.73,11.87-6.54,5.4-10.27-13.06-7.54-26.69-14.01-40.82-19.28-11.81-4.41-27.61-11.94-39.99-5.65-5.53,2.8-9.77,8.24-9.86,14.6Z"/>
      </g>
      <g>
        <path class="cls-1" d="M331.87,210.57c-.28-7.46-11.87-7.12-11.6.35.64,17.27.91,34.55.81,51.83-.04,7.47,11.55,7.11,11.6-.35.1-17.28-.17-34.56-.81-51.83Z"/>
        <path class="cls-1" d="M273.7,210.57c.28-7.46,11.87-7.12,11.6.35-.64,17.27-.91,34.55-.81,51.83.04,7.47-11.55,7.11-11.6-.35-.1-17.28.17-34.56.81-51.83Z"/>
      </g>
    </g>
    <path class="cls-1" d="M67.64,137.45c-1.65-2.82-6.02-4.39-8.89-2.33-1.43,1.03-2.85,2.07-4.27,3.13-5.55-6.32-8.99-14.61-14.41-21.11-5.82-6.98-11.4-13.61-15.25-21.76,1.65-1.11,3.35-2.17,5.11-3.15,7.3-4.08.76-15.31-6.56-11.23-7.15,3.99-13.64,9.06-19.25,15.01-5.2,2.54-4.4,11.91,2.41,12.34,1.85.45,3.9,0,5.61-1.91.82-.91,1.67-1.79,2.52-2.64,3.79,7.17,8.52,13.58,13.99,19.92,5.95,6.9,9.73,15.52,15.53,22.47-1.55,1.23-3.1,2.45-4.66,3.68-2.76,2.18-2.28,6.91,0,9.19,2.72,2.72,6.43,2.18,9.19,0,5.47-4.32,10.92-8.66,16.59-12.72,2.85-2.04,4.22-5.67,2.33-8.89Z"/>
    <path class="cls-1" d="M98.07,118.21c-3.83-10.25-8.73-19.88-14.86-28.95-5.02-7.43-10.48-14.66-13.5-23.1,5.53-3.16,11.07-6.31,16.6-9.47,7.27-4.14.72-15.38-6.56-11.23-13.54,7.72-27.07,15.44-40.61,23.16-7.27,4.14-.72,15.38,6.56,11.23,4.19-2.39,8.38-4.78,12.58-7.17,2.96,7.29,7.35,13.87,11.83,20.4,6.18,9.02,11.59,18.31,15.42,28.58,2.9,7.77,15.47,4.41,12.54-3.46Z"/>
    <path class="cls-1" d="M117.25,38.75c0-3.4-2.99-6.66-6.5-6.5-3.52.16-6.5,2.86-6.5,6.5v6c0,.3.03.6.08.9-.26.7-.42,1.44-.43,2.22-.06,3.28-.6,6.03-1.76,9.33-1.17,3.31,1.32,7.11,4.54,8,3.59.99,6.82-1.22,8-4.54,1.45-4.1,2.15-8.44,2.23-12.79,0-.3-.02-.58-.06-.87.26-.69.41-1.45.41-2.25v-6Z"/>
    <path class="cls-1" d="M181.04,61.01c-3.34-4.53-8.15-7.35-13.61-8.59-5.41-1.22-11.39-.7-16.59-2.74-4.82-1.89-9.1-6.82-4.82-11.38,3.8-4.05,12.43-6.38,17.77-6.26,8.37.19,8.37-12.81,0-13-10.95-.25-25.76,5.23-30.87,15.54-5.51,11.12,2.34,22.77,12.9,27.03,8.1,3.27,24.61-.04,26.63,11.38,2.22,12.56-13.21,17.26-22.77,15.48-8.18-1.52-11.68,11-3.46,12.54,11.61,2.16,24.3.24,32.52-9,7.66-8.6,9.34-21.47,2.31-31Z"/>
    <path class="cls-1" d="M294.68,66.43c-9.91-20.46-15.79-42.58-25.24-63.25-1.43-3.13-6.15-4.05-8.89-2.33-5.06,3.16-6.4,10.02-8.36,15.3-2.54,6.84-4.91,13.76-6.7,20.84-1.59,6.32-2.52,12.8-4.5,19.01-1.99,6.26-4.33,12.12-4.5,18.78-.22,8.37,12.78,8.36,13,0,.14-5.37,2.43-10.28,4.04-15.32.15-.48.29-.96.43-1.44,6.67.02,13.33.1,19.99.27,1.09.03,2.04-.18,2.85-.54,2.05,5.15,4.23,10.25,6.65,15.25,3.65,7.53,14.86.94,11.23-6.56ZM256.95,45.05c.13-.61.27-1.22.41-1.82,1.28-5.57,2.94-11.04,4.8-16.44.48-1.4.98-2.79,1.48-4.18,2.95,7.5,5.64,15.09,8.42,22.65-5.03-.11-10.07-.18-15.1-.21Z"/>
    <path class="cls-1" d="M558.87,145.65c0-.31-.01-.62-.05-.93,0-.06-.01-.11-.02-.17-.04-.31-.1-.61-.18-.91-.01-.05-.03-.09-.04-.14-.09-.31-.19-.62-.32-.91,0,0,0,0,0,0,0,0,0,0,0,0-.16-.37-.36-.72-.59-1.04,0,0,0,0,0,0-.11-.16-.24-.32-.37-.48s-.27-.3-.42-.44c-.29-.28-.62-.53-.98-.74-.18-.11-.37-.21-.56-.29-.79-.36-1.7-.56-2.75-.56h0c-8.36,0-8.38,13,0,13h0c.32,0,.63-.03.93-.06.09-.01.17-.02.25-.04.22-.04.44-.08.65-.14.07-.02.14-.03.21-.05.26-.08.51-.17.75-.29.04-.02.09-.05.13-.07.19-.1.38-.2.56-.32.06-.04.13-.08.19-.13.17-.12.34-.25.49-.39.03-.03.07-.06.1-.09.18-.17.35-.35.51-.54.04-.05.08-.1.12-.15.12-.15.23-.31.33-.47.04-.06.08-.12.11-.18.12-.21.24-.43.34-.65h0c.02-.05.04-.11.06-.16.33-.8.51-1.67.54-2.55,0-.05,0-.09,0-.14Z"/>
    <path class="cls-1" d="M587.79,93.32c-7.96,11.27-16.87,21.76-26.62,31.54-5.91,5.93,3.28,15.13,9.19,9.19,10.52-10.56,20.05-21.99,28.65-34.17,4.83-6.85-6.43-13.35-11.23-6.56Z"/>
    <path class="cls-1" d="M423.56,26.35c.71-7.23-3.44-13.74-9.55-17.37-6.81-4.04-14.67-3.64-22.23-2.74-.9-.56-2.01-.9-3.33-.92-2.99-.04-4.93,1.59-5.81,3.71-.74.7-1.33,1.64-1.7,2.84-4.95,16.19-9.57,32.48-13.84,48.87-1.65,6.34-5.99,16,.91,20.77,2.82,1.95,7.05,2.1,10.35,2.51,3.77.47,7.57.72,11.37.67,13.63-.19,29.99-7.52,27.65-23.83-.95-6.68-4.69-12.45-9.75-16.98,1.27-.41,2.52-.89,3.73-1.5,6.18-3.09,11.49-8.94,12.18-16.03ZM381.17,71.32c-1.07-.1-2.13-.23-3.19-.38.04-.31.09-.61.16-.89.32-1.26.65-2.52.97-3.78,1.47-5.67,2.97-11.34,4.53-16.99.27-.98.54-1.95.81-2.93,7.89,1.8,18.64,7.24,20.07,16.07,1.77,10.95-17.09,9.5-23.34,8.9ZM410.08,26.75c-3.54,7-14.58,6.24-21.94,6.54,1.37-4.72,2.77-9.43,4.19-14.13.07,0,.14-.01.21-.02,4.07-.53,22.14-1.48,17.54,7.61Z"/>
    <path class="cls-1" d="M487.59,59.64c-1.14-14.53-8.77-33.1-24.32-36.99-.31-.15-.62-.29-.97-.4-16.41-5.26-25.88,11.92-30.7,24.58-4.64,12.19-8.61,28.96-1.19,40.92,7.74,12.48,27.39,14.12,39.42,7.53,12.63-6.92,18.86-21.68,17.76-35.64ZM455.51,85.99c-5.37.13-12.11-.87-14.66-6.21-2.19-4.58-1.63-10.44-.74-15.27,1.22-6.6,3.28-13.17,6.2-19.21,2.03-4.19,5.3-11.1,10.61-10.88.43.18.9.32,1.41.42,11.6,2.22,16.41,17.71,16.4,28.02-.01,11.12-7.12,22.85-19.22,23.13Z"/>
    <path class="cls-1" d="M550.57,65.85c-5.1,2.67-10.19,5.34-15.29,7.99-2.88,1.5-5.76,2.98-8.67,4.43-1.16.58-2.32,1.16-3.49,1.72-.16.08-.32.14-.48.21-.32-1.12-.64-2.24-.94-3.36-.71-2.71-1.35-5.43-1.91-8.17-1.21-5.83-2.07-11.71-2.6-17.64-.74-8.25-13.74-8.52-13-.18.72,8.01,1.83,15.99,3.61,23.83.99,4.38,1.76,11.05,4.55,15.41-4.06,7.93-8.11,15.85-12.17,23.78-3.8,7.42,7.32,14.17,11.13,6.71,4.62-9.03,9.24-18.06,13.86-27.09,3.44-1.26,6.79-3.38,9.58-4.79,7.45-3.76,14.82-7.68,22.22-11.55,7.42-3.88,1.01-15.2-6.41-11.31Z"/>
  </g>
</svg>