<?xml version="1.0" encoding="UTF-8"?>
<svg id="Layer_2" data-name="Layer 2" xmlns="http://www.w3.org/2000/svg" viewBox="0 0 403.25 440.65">
  <defs>
    <style>
      .cls-1 {
        fill: #1a0e28;
      }

      .cls-2 {
        fill: #fff;
      }

      .cls-3 {
        fill: #ec008c;
      }

      .cls-4 {
        fill: #f5a5c8;
      }

      .cls-5 {
        fill: #00aeef;
      }
    </style>
  </defs>
  <g id="Layer_1-2" data-name="Layer 1">
    <g>
      <g>
        <path class="cls-4" d="M196.96,157.1c-34.43-29.26-57-56.59-67.08-81.22-8.27-20.2-7.92-38.5,1.01-52.94,6.83-11.04,16.79-17.12,28.02-17.12.34,0,.68,0,1.02.02,15.19.48,30,12.12,40.58,31.93.23.42.64.67,1.11.67s.88-.25,1.1-.66c10.59-19.82,25.4-31.46,40.64-31.94.27-.01.62-.01.96-.01,11.24,0,21.2,6.08,28.03,17.12,8.93,14.44,9.28,32.75,1.01,52.95-10.08,24.63-32.65,51.96-67.08,81.22l-4.66,3.96-4.66-3.96Z"/>
        <path class="cls-1" d="M277.29,19.88C269.22,6.83,256.76-.43,243.19.02c-15.46.49-30.31,10.65-41.56,28.17C190.38,10.67,175.53.51,160.07.02c-13.62-.43-26.03,6.81-34.11,19.86-13.08,21.15-21.18,68.15,71.51,145.22l4.16,3.46,4.16-3.46c92.69-77.07,84.59-124.07,71.5-145.22ZM266.71,73.15c-9.64,23.56-31.53,49.95-65.08,78.46-33.55-28.51-55.44-54.9-65.08-78.46-7.36-17.98-7.19-34.04.47-46.43,5.49-8.87,13.24-13.71,21.9-13.71.25,0,.49,0,.74.01,12.6.4,25.17,10.65,34.51,28.13,1.47,2.76,4.33,4.48,7.46,4.48s5.99-1.72,7.46-4.48c9.34-17.48,21.91-27.73,34.51-28.13.24-.01.49-.01.73-.01,8.68,0,16.42,4.84,21.91,13.71,7.66,12.39,7.83,28.45.47,46.43Z"/>
      </g>
      <g>
        <g>
          <path class="cls-1" d="M349.65,309.03c-9.3-13.87-14.16-29.68-14.02-46.39.08-9.15-13.37-9.63-14.86-1.44-3.46.33-6.74,2.72-6.83,7.2-.04,2.03.04,4.05.22,6.07-2.52-.95-5.5-.08-7.59,1.84-1.3-1.74-3.27-2.88-5.76-2.88-3.75,0-7.9,3.44-7.5,7.5,1.3,13.27,3.49,26.4,6.7,39.34.85,3.4,3.29,5.03,5.95,5.3,4.63,2.26,11.27.19,10.72-6.31-.48-5.59-.61-11.18-.38-16.75,6.09,6.74,13.41,12.36,21.58,16.47,1.21.61,2.4.87,3.53.86,5.74,1.17,12.38-4.66,8.25-10.81Z"/>
          <path class="cls-1" d="M281.24,311.61c-1.12-13.29-3.27-26.43-6.31-39.41-.93-3.97-5.96-5.9-9.51-4.69-2.36.8-3.85,2.52-4.53,4.58-2.6-1.15-5.7-1.01-7.78.7-.47-1.97-1.05-3.91-1.74-5.82-.51-1.41-1.29-2.47-2.22-3.25-2.45,4.83-5.59,9.26-9.08,12.75-2.26,2.26-4.81,4.3-7.55,6.09,1.82,11.39,1.17,22.98-1.9,34.37-1.93,7.16,6.23,10.54,11.29,7.58,1.07-.36,2.11-.99,3.06-1.95,6.41-6.52,11.53-14.19,15.13-22.53,2.01,5.2,3.68,10.54,5.02,15.98,1.57,6.32,8.51,6.15,12.17,2.52,2.43-1.11,4.23-3.44,3.93-6.93Z"/>
          <path class="cls-1" d="M234.35,264.51c6.92-10.49,6.28-23.18,6.45-35.24.18-12.85,1.37-26.58,8.87-37.49,6.65-9.67,17.19-16.15,29.19-15.46,11.28.65,14.35,9.37,14.41,24.06.05,11.47-16.46,12.36-22,13.02-7.82.93-12.43,17.78-12.94,28.6-.51,11-2.49,22.14-8.65,31.48-6.27,9.5-21.66.61-15.34-8.97Z"/>
          <path class="cls-1" d="M341.07,264.51c-6.92-10.49-6.28-23.18-6.45-35.24-.18-12.85-1.37-26.58-8.87-37.49-6.65-9.67-17.19-16.15-29.19-15.46-11.28.65-14.35,9.37-14.41,24.06-.05,11.47,16.46,12.36,22,13.02,7.82.93,12.43,17.78,12.94,28.6.51,11,2.49,22.14,8.65,31.48,6.27,9.5,21.66.61,15.34-8.97Z"/>
          <path class="cls-2" d="M203.02,326.95c9.32-.45,18.34-7.81,25.61-13.02,11.35-8.15,22.76-16.46,32.62-26.36-.41,6.69-.6,13.41-.56,20.12.08,12.21.99,24.36,2.48,36.47-3.53,7.85-6.12,16.13-7.69,24.85-3.1,17.16-3.5,34.81-9.5,51.36-2.15,5.92,2.42,12.71,8.1,14.27,6.39,1.75,12.14-2.22,14.28-8.11,5.63-15.53,6.34-32.05,8.96-48.22.72-4.46,1.66-8.87,2.87-13.18.14-.04.29-.08.43-.13,2.17-.8,4.33-1.6,6.5-2.4.86-.31,2.16-.6,3.34-.96.11.22.21.44.29.67,2.47,6.86,4.37,14.07,8.17,20.33,1.68,16.45.33,33.37,9.42,48.05,7.85,12.69,27.92,1.02,20.04-11.71-3.53-5.69-4.71-12.26-5.19-18.82-.46-6.39-.68-12.77-1.3-19.13.5-2.38.28-4.85-.9-6.97-1.38-8.11-4.44-15.69-7.33-23.38-1.15-3.07-2.3-6.14-3.46-9.21,1.81-20.4,2.78-40.85,2.92-61.33,26.39-7.43,53.99-14.49,76.78-29.81,4.31-2.89,6.6-7.94,5.4-12.82-.98-5.45-5.82-9.33-11.41-9.59-17.55-.85-33.78,5.93-49.41,13.08-7.07,3.24-14.09,6.58-21.08,9.99.19-.2.39-.39.58-.59,6.51-7.07,9.93-16.66,9.55-26.25-.69-17.97-12.85-33.79-30.31-38.46-6.64-1.77-13.13-.25-18.14,3.46-5.51,2.16-10.49,5.84-14.41,10.17-7.99,8.83-11.22,19.49-8.79,31.24,1.22,5.92,4.36,11.92,8.23,16.92-7.49,8.27-17.88,14.34-26.94,20.27-8.08,5.3-15.88,11.03-23.19,17.37-6.57,5.69-14.44,12.16-18.89,19.71-5.52,9.37.19,22.7,11.93,22.12Z"/>
          <path class="cls-3" d="M222.56,274.94c.6-.54,1.29-1.04,2.11-1.47,12.51-6.71,22.82-17.61,37.36-19.97,3.68-.6,7.41.31,9.87,2.77,5.28,1.17,10.68,1.91,16.08,2.11,6.22.23,12.46-.15,18.27-2.59,5.59-2.35,10.75-6.17,15.88-9.39,2.29-2.61,5.7-4.35,8.95-4.21,6.81.3,10.95,5.11,11.6,11.6.03.26.04.43.05.57.2,1.05.37,2.09.61,3.13.44,1.94.99,3.84,1.63,5.73,1.94,5.76-2.23,12.93-8.1,14.27-1.05.24-2.08.34-3.08.33-7.23,2.81-14.71,5.02-22.32,6.59.48,10.84.65,21.68.43,32.53-.05,2.45-.09,4.97-.44,7.37.5,1.25.79,2.65.79,4.19,0,5.7-5.34,12.34-11.6,11.6-7.73-.92-15.49-1.56-23.27-1.92-1.03.29-2.15.46-3.38.46-6.97,0-10.69-5.06-11.15-10.45-1.8-3.24-2.25-7.34-2.46-11.43-.5-10.1.44-20.18,1.58-30.21-3.01,2.6-5.92,5.33-8.72,8.2-1.62,1.66-3.4,2.55-5.18,2.86-1.72,2.95-4.8,4.95-8.54,5-10.18.15-18.82-6.61-21.99-16.1-1.43-4.3,1.05-9.5,5.03-11.57Z"/>
          <path class="cls-1" d="M261.85,258.95c12.73,10.85,30.2,12.5,45.05,4.96,17.35-8.81,23.34-27.65,19.36-45.94-3.76-17.28-15.28-35.29-34.14-37.41-.95-.11-1.77,0-2.47.24-.05,0-.1-.01-.15-.01-19.36-.7-36.83,13.9-41.91,32.23-4.51,16.27,1.44,35,14.27,45.93ZM260.61,211.12c5.3-11.12,16.34-19.18,28.88-18.73.81.03,1.52-.09,2.15-.3.15.03.31.06.47.08,15.22,1.71,23.35,22.72,23.86,35.78.52,13.35-7.24,24.27-20.13,27.95-11.68,3.34-23.5-.85-30.91-10.44-7.44-9.63-9.62-23.23-4.32-34.34Z"/>
          <g>
            <path class="cls-1" d="M293.68,350.04c3.62,16.1,7.23,32.2,10.85,48.3,1.55,6.89,2.71,14.08,5.3,20.68,1.06,2.7,7.31,14.72,11.41,8.82,1.32-1.9.81-5.45.66-7.54-.28-3.78-.68-7.56-1.1-11.33-.87-7.83-1.98-15.64-3.31-23.41-2.78-16.18-6.57-32.16-11.35-47.87-2.15-7.08,8.51-11.67,10.68-4.53,4.48,14.74,8.24,29.7,11.08,44.84,2.72,14.5,5.51,29.72,5.66,44.5.06,5.62-1.15,11.46-5.75,15.18-4.76,3.84-11.72,3.75-16.92.93-12.15-6.6-14.37-23.14-17.1-35.29-3.88-17.25-7.75-34.5-11.63-51.75-1.64-7.28,9.87-8.77,11.5-1.53Z"/>
            <path class="cls-1" d="M281.62,350.04c-3.62,16.1-7.23,32.2-10.85,48.3-1.55,6.89-2.71,14.08-5.3,20.68-1.06,2.7-7.31,14.72-11.41,8.82-1.32-1.9-.81-5.45-.66-7.54.28-3.78.68-7.56,1.1-11.33.87-7.83,1.98-15.64,3.31-23.41,2.78-16.18,6.57-32.16,11.35-47.87,2.15-7.08-8.51-11.67-10.68-4.53-4.48,14.74-8.24,29.7-11.08,44.84-2.72,14.5-5.51,29.72-5.66,44.5-.06,5.62,1.15,11.46,5.75,15.18,4.76,3.84,11.72,3.75,16.92.93,12.15-6.6,14.37-23.14,17.1-35.29,3.88-17.25,7.75-34.5,11.63-51.75,1.64-7.28-9.87-8.77-11.5-1.53Z"/>
          </g>
          <path class="cls-1" d="M184.45,323.38c-1.92-5.74-.22-11.76,2.53-16.92,6.57-12.31,17.18-22.87,27.89-31.61,12.78-10.42,26.83-19.05,40.95-27.52,6.4-3.84,12.32,6.14,5.9,9.99-13.22,7.94-26.6,15.9-38.58,25.67-5.69,4.64-11.09,9.66-15.95,15.18-4.29,4.87-9.4,10.72-11.44,16.99-2.33,7.19,4.94,8.98,10.51,6.87,6.56-2.49,12.52-7.63,18.05-11.84,12.69-9.65,24.37-20.59,35.09-32.37,5.02-5.52,13.3,2.61,8.27,8.14-10.15,11.16-21.16,21.46-33.02,30.79-9.91,7.79-22.67,19.77-36.37,17.55-6.12-.99-11.81-4.87-13.83-10.91Z"/>
          <path class="cls-1" d="M403.25,237.99c.08,6.05-3.36,11.27-7.56,15.35-10.01,9.73-23.32,16.56-36.19,21.63-15.35,6.04-31.35,9.98-47.38,13.76-7.27,1.71-9.87-9.6-2.58-11.31,15.01-3.54,30.17-7.06,44.56-12.72,6.84-2.69,13.51-5.83,19.81-9.61,5.56-3.33,12.22-7.35,16.07-12.7,4.41-6.14-1.97-10.06-7.92-9.74-7.01.37-14.24,3.46-20.8,5.79-15.02,5.33-29.48,12.2-43.27,20.17-6.46,3.73-11.87-6.54-5.4-10.27,13.06-7.54,26.69-14.01,40.82-19.28,11.81-4.41,27.61-11.94,39.99-5.65,5.53,2.8,9.77,8.24,9.86,14.6Z"/>
          <g>
            <path class="cls-1" d="M258.57,282.5c.28-7.46,11.87-7.12,11.6.35-.64,17.27-.91,34.55-.81,51.83.04,7.47-11.55,7.11-11.6-.35-.1-17.28.17-34.56.81-51.83Z"/>
            <path class="cls-1" d="M316.74,282.5c-.28-7.46-11.87-7.12-11.6.35.64,17.27.91,34.55.81,51.83-.04,7.47,11.55,7.11,11.6-.35.1-17.28-.17-34.56-.81-51.83Z"/>
          </g>
          <path class="cls-1" d="M275.26,185.09c-4.23,6.22-11.06,8.63-18.35,7.25-8.86-1.68-10,12.28-1.23,13.95,11.99,2.28,24.3-3.25,31.1-13.25,5.07-7.46-6.44-15.42-11.52-7.95Z"/>
          <path class="cls-1" d="M298.8,185.09c4.23,6.22,11.06,8.63,18.35,7.25,8.86-1.68,10,12.28,1.23,13.95-11.99,2.28-24.3-3.25-31.1-13.25-5.07-7.46,6.44-15.42,11.52-7.95Z"/>
        </g>
        <g>
          <path class="cls-2" d="M200.23,326.95c-9.32-.45-18.34-7.81-25.61-13.02-11.35-8.15-22.76-16.46-32.62-26.36.41,6.69.6,13.41.56,20.12-.08,12.21-.99,24.36-2.48,36.47,3.53,7.85,6.12,16.13,7.69,24.85,3.1,17.16,3.5,34.81,9.5,51.36,2.15,5.92-2.42,12.71-8.1,14.27-6.39,1.75-12.14-2.22-14.28-8.11-5.63-15.53-6.34-32.05-8.96-48.22-.72-4.46-1.66-8.87-2.87-13.18-.14-.04-.29-.08-.43-.13-2.17-.8-4.33-1.6-6.5-2.4-.86-.31-2.16-.6-3.34-.96-.11.22-.21.44-.29.67-2.47,6.86-4.37,14.07-8.17,20.33-1.68,16.45-.33,33.37-9.42,48.05-7.85,12.69-27.92,1.02-20.04-11.71,3.53-5.69,4.71-12.26,5.19-18.82.46-6.39.68-12.77,1.3-19.13-.5-2.38-.28-4.85.9-6.97,1.38-8.11,4.44-15.69,7.33-23.38,1.15-3.07,2.3-6.14,3.46-9.21-1.81-20.4-2.78-40.85-2.92-61.33-26.39-7.43-53.99-14.49-76.78-29.81-4.31-2.89-6.6-7.94-5.4-12.82.98-5.45,5.82-9.33,11.41-9.59,17.55-.85,33.78,5.93,49.41,13.08,7.07,3.24,14.09,6.58,21.08,9.99-.19-.2-.39-.39-.58-.59-6.51-7.07-9.93-16.66-9.55-26.25.69-17.97,12.85-33.79,30.31-38.46,6.64-1.77,13.13-.25,18.14,3.46,5.51,2.16,10.49,5.84,14.41,10.17,7.99,8.83,11.22,19.49,8.79,31.24-1.22,5.92-4.36,11.92-8.23,16.92,7.49,8.27,17.88,14.34,26.94,20.27,8.08,5.3,15.88,11.03,23.19,17.37,6.57,5.69,14.44,12.16,18.89,19.71,5.52,9.37-.19,22.7-11.93,22.12Z"/>
          <path class="cls-5" d="M180.69,274.94c-.6-.54-1.29-1.04-2.11-1.47-12.51-6.71-22.82-17.61-37.36-19.97-3.68-.6-7.41.31-9.87,2.77-5.28,1.17-10.68,1.91-16.08,2.11-6.22.23-12.46-.15-18.27-2.59-5.59-2.35-10.75-6.17-15.88-9.39-2.29-2.61-5.7-4.35-8.95-4.21-6.81.3-10.95,5.11-11.6,11.6-.03.26-.04.43-.05.57-.2,1.05-.37,2.09-.61,3.13-.44,1.94-.99,3.84-1.63,5.73-1.94,5.76,2.23,12.93,8.1,14.27,1.05.24,2.08.34,3.08.33,7.23,2.81,14.71,5.02,22.32,6.59-.48,10.84-.65,21.68-.43,32.53.05,2.45.09,4.97.44,7.37-.5,1.25-.79,2.65-.79,4.19,0,5.7,5.34,12.34,11.6,11.6,7.73-.92,15.49-1.56,23.27-1.92,1.03.29,2.15.46,3.38.46,6.97,0,10.69-5.06,11.15-10.45,1.8-3.24,2.25-7.34,2.46-11.43.5-10.1-.44-20.18-1.58-30.21,3.01,2.6,5.92,5.33,8.72,8.2,1.62,1.66,3.4,2.55,5.18,2.86,1.72,2.95,4.8,4.95,8.54,5,10.18.15,18.82-6.61,21.99-16.1,1.43-4.3-1.05-9.5-5.03-11.57Z"/>
          <path class="cls-1" d="M155.67,213.02c-5.08-18.33-22.56-32.93-41.91-32.23-.05,0-.1,0-.15.01-.7-.25-1.52-.35-2.47-.24-18.86,2.12-30.39,20.14-34.14,37.41-3.98,18.29,2.02,37.13,19.36,45.94,14.84,7.54,32.31,5.89,45.05-4.96,12.83-10.93,18.78-29.66,14.27-45.93ZM138.32,245.46c-7.4,9.58-19.22,13.78-30.91,10.44-12.89-3.68-20.65-14.6-20.13-27.95.51-13.06,8.63-34.07,23.86-35.78.16-.02.32-.05.47-.08.63.22,1.34.33,2.15.3,12.54-.45,23.57,7.61,28.88,18.73,5.3,11.11,3.12,24.71-4.32,34.34Z"/>
          <g>
            <path class="cls-1" d="M109.57,350.04c-3.62,16.1-7.23,32.2-10.85,48.3-1.55,6.89-2.71,14.08-5.3,20.68-1.06,2.7-7.31,14.72-11.41,8.82-1.32-1.9-.81-5.45-.66-7.54.28-3.78.68-7.56,1.1-11.33.87-7.83,1.98-15.64,3.31-23.41,2.78-16.18,6.57-32.16,11.35-47.87,2.15-7.08-8.51-11.67-10.68-4.53-4.48,14.74-8.24,29.7-11.08,44.84-2.72,14.5-5.51,29.72-5.66,44.5-.06,5.62,1.15,11.46,5.75,15.18,4.76,3.84,11.72,3.75,16.92.93,12.15-6.6,14.37-23.14,17.1-35.29,3.88-17.25,7.75-34.5,11.63-51.75,1.64-7.28-9.87-8.77-11.5-1.53Z"/>
            <path class="cls-1" d="M121.63,350.04c3.62,16.1,7.23,32.2,10.85,48.3,1.55,6.89,2.71,14.08,5.3,20.68,1.06,2.7,7.31,14.72,11.41,8.82,1.32-1.9.81-5.45.66-7.54-.28-3.78-.68-7.56-1.1-11.33-.87-7.83-1.98-15.64-3.31-23.41-2.78-16.18-6.57-32.16-11.35-47.87-2.15-7.08,8.51-11.67,10.68-4.53,4.48,14.74,8.24,29.7,11.08,44.84,2.72,14.5,5.51,29.72,5.66,44.5.06,5.62-1.15,11.46-5.75,15.18-4.76,3.84-11.72,3.75-16.92.93-12.15-6.6-14.37-23.14-17.1-35.29-3.88-17.25-7.75-34.5-11.63-51.75-1.64-7.28,9.87-8.77,11.5-1.53Z"/>
          </g>
          <path class="cls-1" d="M218.8,323.38c1.92-5.74.22-11.76-2.53-16.92-6.57-12.31-17.18-22.87-27.89-31.61-12.78-10.42-26.83-19.05-40.95-27.52-6.4-3.84-12.32,6.14-5.9,9.99,13.22,7.94,26.6,15.9,38.58,25.67,5.69,4.64,11.09,9.66,15.95,15.18,4.29,4.87,9.4,10.72,11.44,16.99,2.33,7.19-4.94,8.98-10.51,6.87-6.56-2.49-12.52-7.63-18.05-11.84-12.69-9.65-24.37-20.59-35.09-32.37-5.02-5.52-13.3,2.61-8.27,8.14,10.15,11.16,21.16,21.46,33.02,30.79,9.91,7.79,22.67,19.77,36.37,17.55,6.12-.99,11.81-4.87,13.83-10.91Z"/>
          <path class="cls-1" d="M0,237.99c-.08,6.05,3.36,11.27,7.56,15.35,10.01,9.73,23.32,16.56,36.19,21.63,15.35,6.04,31.35,9.98,47.38,13.76,7.27,1.71,9.87-9.6,2.58-11.31-15.01-3.54-30.17-7.06-44.56-12.72-6.84-2.69-13.51-5.83-19.81-9.61-5.56-3.33-12.22-7.35-16.07-12.7-4.41-6.14,1.97-10.06,7.92-9.74,7.01.37,14.24,3.46,20.8,5.79,15.02,5.33,29.48,12.2,43.27,20.17,6.46,3.73,11.87-6.54,5.4-10.27-13.06-7.54-26.69-14.01-40.82-19.28-11.81-4.41-27.61-11.94-39.99-5.65C4.33,226.2.09,231.63,0,237.99Z"/>
          <g>
            <path class="cls-1" d="M144.69,282.5c-.28-7.46-11.87-7.12-11.6.35.64,17.27.91,34.55.81,51.83-.04,7.47,11.55,7.11,11.6-.35.1-17.28-.17-34.56-.81-51.83Z"/>
            <path class="cls-1" d="M86.51,282.5c.28-7.46,11.87-7.12,11.6.35-.64,17.27-.91,34.55-.81,51.83.04,7.47-11.55,7.11-11.6-.35-.1-17.28.17-34.56.81-51.83Z"/>
          </g>
        </g>
      </g>
    </g>
  </g>
</svg>