<?xml version="1.0" encoding="UTF-8"?>
<svg id="Layer_2" data-name="Layer 2" xmlns="http://www.w3.org/2000/svg" viewBox="0 0 392.17 301.72">
  <defs>
    <style>
      .cls-1 {
        fill: #1a0e28;
      }

      .cls-2 {
        fill: #9665aa;
      }

      .cls-3 {
        fill: #9f71b1;
      }
    </style>
  </defs>
  <g id="Layer_1-2" data-name="Layer 1">
    <g>
      <path class="cls-3" d="M370.4,75.22c-.79-3.03-1.54-6.1-2.33-9.35-3.14-12.94-6.39-26.32-13-38.07-5.11-9.09-12.82-15.28-22.92-18.41l-5.89-1.82.08-.24-1-.04-1.71-.53-.04.45-6.94-.3c-1.54-.07-2.82-.1-4.02-.1h-.48c-17.65.07-35.04,1.76-54.32,3.79-18.65,1.96-37.55,4.62-56.19,7.91-37.23,6.56-74.23,15.7-109.97,27.17-24.57,7.88-50.06,17.64-70,35.57l-4.91,4.42-.06-.07-.44.53-1.58,1.42.25.16-3.53,4.21c-.93,1.11-1.67,2.02-2.38,2.94l-1.88,1.88-.12,2.8c-.36,8.38-.33,16.67.09,24.61,1.92,36.95,11.54,73.16,21.64,106.78,2.29,7.65,4.82,15.87,7.98,25.91.97,3.09,1.97,6.29,3.21,9.48l5.47,14.06.95-1.67,4.11,3.65c12.52,11.12,31.06,12.54,45.82,12.54,1.43,0,2.84-.01,4.2-.04,18.53-.28,37.04-2.94,54.94-5.51h.1c18.88-2.73,37.86-6.02,56.43-9.78,37.22-7.55,74.47-17.35,110.71-29.14,8.86-2.88,17.98-6,27.1-9.26,1.36-.49,2.94-.98,4.61-1.5,6.81-2.12,15.29-4.75,20.62-10.82,1.59-1.82,2.89-3.94,3.99-6.47l1.73-3.99.27.29,2.14-14.88.09-.56c1.24-7.91,1.95-16.31,2.17-25.71.87-36.44-7.09-72.18-14.99-102.34Z"/>
      <path class="cls-1" d="M383.55,100.66c-3.84-17.63-8.52-35.07-13.48-52.41-4.48-15.68-10.58-32.29-25.3-41.11-14.19-8.5-31.66-7.45-47.51-6.53-19.99,1.15-39.94,3.04-59.79,5.64-40.02,5.24-79.64,13.23-118.5,24.14-33.51,9.41-69.28,19.49-96.93,41.56-6.5,5.19-12.33,11.05-17.4,17.64-.45.59-.83,1.21-1.13,1.85-1.75,1.09-3.04,2.94-3.17,5.55-2.02,38.33,5.26,76.37,15.36,113.18,5.12,18.67,10.33,37.63,16.93,55.84,3.06,8.44,7.21,16.47,14.31,22.22,6.39,5.19,14.1,8.46,22.05,10.4,17.9,4.37,36.68,3.39,54.83,1.47,19.94-2.12,39.81-4.95,59.58-8.32,40.26-6.84,80.11-16.18,119.22-27.94,19.41-5.83,38.63-12.25,57.64-19.27,7.99-2.95,16.14-6.01,21.34-13.14,5-6.86,6.4-15.75,7.76-23.93,5.91-35.62,1.82-71.8-5.81-106.84ZM93.89,52.54c35.67-11.45,72.13-20.44,109.02-26.94,18.47-3.26,37.04-5.88,55.69-7.84,17.74-1.87,35.74-3.68,53.6-3.75,1.4-.01,2.79.03,4.16.09-9.89,28.3-20.53,56.4-32.44,83.92-10.48,24.22-22.86,48.86-42.65,66.9-18.21,16.59-44.03,27.65-68.83,22.17-25.35-5.6-45.13-26.66-64.73-42.28-26.06-20.77-53.21-40.11-81.2-58.2,18.8-16.91,43.37-26.37,67.38-34.07ZM46.67,263.72c-1.16-2.98-2.12-6.05-3.07-9.08-2.69-8.57-5.35-17.16-7.93-25.77-10.29-34.23-19.49-69.24-21.35-105.09-.42-7.97-.43-15.95-.09-23.93.14-.14.28-.29.4-.45.75-.98,1.52-1.92,2.3-2.85.59.65,1.28,1.23,2.04,1.72,26.45,17.02,52.05,35.36,76.72,54.87,7.11,5.62,14.12,11.7,21.3,17.63-27.3,27.82-50.98,59.11-70.32,92.95ZM369.58,224.14c-5.08,5.79-15.28,7.79-22.22,10.27-8.92,3.19-17.89,6.26-26.9,9.19-36.05,11.73-72.76,21.4-109.91,28.93-18.58,3.77-37.26,7-56.02,9.7-17.89,2.57-36.02,5.18-54.12,5.45-14.6.23-33.54-.4-45.13-10.69,19.66-35.71,44.08-68.46,72.73-97.47,11.37,8.6,23.44,16.06,37.12,20.11,25.97,7.7,54.17-.82,75.55-16.3,12.67-9.17,23.01-20.82,31.75-33.66,38.19,14.41,72.26,38.35,99.14,69.06.26.31.54.57.82.81-.74,1.71-1.65,3.27-2.81,4.6ZM378.2,177.39c-.2,8.28-.81,16.58-2.09,24.77-.03.21-.07.43-.1.64-26.68-28.62-59.63-50.81-96.03-65.17,3.98-6.85,7.59-13.9,10.92-21,14.91-31.72,27.1-64.93,38.63-98.01.27-.77.43-1.56.5-2.35,7.65,2.37,14.19,6.91,18.77,15.06,7.71,13.7,10.69,30.65,14.64,45.72,8.58,32.75,15.57,66.31,14.76,100.34Z"/>
      <path class="cls-2" d="M378.2,177.39c-.2,8.28-.81,16.58-2.09,24.77-.03.21-.07.43-.1.64-26.68-28.62-59.63-50.81-96.03-65.17,3.98-6.85,7.59-13.9,10.92-21,14.91-31.72,27.1-64.93,38.63-98.01.27-.77.43-1.56.5-2.35,7.65,2.37,14.19,6.91,18.77,15.06,7.71,13.7,10.69,30.65,14.64,45.72,8.58,32.75,15.57,66.31,14.76,100.34Z"/>
      <path class="cls-2" d="M116.99,170.77c-27.3,27.82-50.98,59.11-70.32,92.95-1.16-2.98-2.12-6.05-3.07-9.08-2.69-8.57-5.35-17.16-7.93-25.77-10.29-34.23-19.49-69.24-21.35-105.09-.42-7.97-.43-15.95-.09-23.93.14-.14.28-.29.4-.45.75-.98,1.52-1.92,2.3-2.85.59.65,1.28,1.23,2.04,1.72,26.45,17.02,52.05,35.36,76.72,54.87,7.11,5.62,14.12,11.7,21.3,17.63Z"/>
    </g>
  </g>
</svg>